<?xml version="1.0" encoding="UTF-8"?>
<svg id="Lag_9" xmlns="http://www.w3.org/2000/svg" xmlns:xlink="http://www.w3.org/1999/xlink" version="1.1" viewBox="0 0 595.28 841.89">
  <!-- Generator: Adobe Illustrator 30.0.0, SVG Export Plug-In . SVG Version: 2.1.1 Build 123)  -->
  <defs>
    <style>
      .st0 {
        fill: #fff;
      }

      .st0, .st1, .st2, .st3, .st4 {
        stroke: #1d1d1b;
        stroke-miterlimit: 10;
      }

      .st1 {
        fill: #dadada;
      }

      .st2 {
        fill: url(#Ikke-navngivet_forløb);
      }

      .st3 {
        fill: #1d1d1b;
      }

      .st4 {
        fill: #be1622;
      }
    </style>
    <linearGradient id="Ikke-navngivet_forløb" data-name="Ikke-navngivet forløb" x1="202" y1="437.59" x2="519.22" y2="437.59" gradientTransform="translate(0 841.89) scale(1 -1)" gradientUnits="userSpaceOnUse">
      <stop offset="0" stop-color="#1d1d1b"/>
      <stop offset="0" stop-color="#221c1b"/>
      <stop offset=".06" stop-color="#471b1c"/>
      <stop offset=".12" stop-color="#67191e"/>
      <stop offset=".18" stop-color="#82181f"/>
      <stop offset=".25" stop-color="#981720"/>
      <stop offset=".34" stop-color="#a91621"/>
      <stop offset=".44" stop-color="#b51621"/>
      <stop offset=".59" stop-color="#bc1621"/>
      <stop offset="1" stop-color="#be1622"/>
    </linearGradient>
  </defs>
  <polygon class="st2" points="206.84 312.25 212.92 305.58 220.45 300.66 230.29 296.32 239.85 293.13 249.7 291.97 257.52 291.97 264.76 291.97 273.44 293.13 280.97 294.87 291.11 296.9 300.38 299.5 306.46 303.27 311.96 308.77 315.73 319.77 317.17 329.04 317.17 339.76 317.17 351.05 317.17 357.32 315.2 364.29 321.27 362.62 331.87 354.29 339.45 347.47 345.51 339.14 350.43 330.43 361.04 324.37 377.32 321.72 390.96 320.58 409.14 323.61 425.81 328.13 440.96 333.46 458.38 340.28 473.53 349.37 483 357.32 490.96 364.29 502.32 378.91 510.28 392.55 513.31 404.29 515.2 411.87 515.2 420.94 515.2 428.91 512.55 436.87 508.76 447.09 507.25 451.26 512.93 462.62 516.17 468.92 518.05 474.33 519.22 479.73 519.22 485.84 519.22 491.95 517.11 496.88 514.52 501.35 512.17 505.11 508.88 508.63 504.89 512.15 499.96 514.27 493.85 516.62 485.62 516.62 480.69 515.21 488.21 513.33 493.61 510.98 497.37 508.16 501.13 503.46 503.01 497.82 503.48 489.83 502.31 483.25 499.72 476.68 495.26 469.86 490.09 466.1 485.15 463.05 474.81 463.05 460.01 462.81 450.14 462.11 439.34 461.4 426.41 458.35 417.25 454.35 409.26 450.13 400.33 444.72 393.52 439.55 385.29 433.68 378.25 427.1 371.2 420.94 363.03 414.18 358.04 408.77 351.46 404.3 346.06 399.61 341.12 396.08 335.01 392.09 328.43 387.86 322.56 384.1 316.22 380.81 310.58 378.46 308.54 383.35 306.7 388.67 305.27 392.35 301.8 398.07 294.03 402.98 285.85 407.07 273.58 409.93 263.35 411.57 253.13 411.57 243.51 410.55 235.13 408.09 226.95 404.3 220.2 400.73 211.61 395.41 206.84 389.89 202 384.17 206.84 312.25"/>
  <g id="Lag_3">
    <polygon class="st4" points="130.23 420.94 121.69 420.94 117.06 418.24 113.3 412.45 113.3 399.41 113.3 382.62 117.06 368.43 120.25 355.4 126.62 340.92 133.57 329.04 141.1 316.88 150.94 306.74 162.53 300.66 173.82 297.19 184.25 297.19 194.09 300.37 203.36 307.03 209.73 313.98 214.66 322.09 218.13 330.49 219.29 339.47 219.29 348.45 219.29 357.13 214.37 368.14 209.44 377.12 201.04 386.96 191.49 394.78 180.77 399.7 168.9 404.34 159.63 407.23 153.55 408.97 146.02 415.05 139.36 418.82 130.23 420.94"/>
  </g>
  <polygon class="st3" points="154.99 383.44 154.08 380.31 153.4 375.52 154.19 369.55 154.99 362.2 156.13 356.05 157.16 349.9 159.21 344.1 161.6 338.12 165.01 332.82 168.09 328.04 171.85 323.09 174.58 319.84 177.82 317.45 181.92 315.91 186.02 315.06 190.81 315.06 195.08 315.06 198.32 317.45 200.71 320.18 202.76 323.6 203.79 327.01 203.79 331.46 203.79 335.04 203.79 338.8 203.79 343.24 202.42 346.83 200.88 350.76 199.17 354.51 196.78 359.3 194.22 363.57 192.34 366.98 189.61 370.91 186.88 374.16 183.8 377.92 180.39 380.99 176.97 383.44 172.7 385.77 168.6 386.8 163.82 387.65 159.89 387.65 156.81 386.28 154.99 383.44"/>
  <polygon class="st3" points="352.45 403.97 361.88 396.16 367.63 389.49 373.15 381.67 377.06 375.23 380.73 367.19 383.72 358.68 386.94 348.79 388.32 340.51 389.47 333.39 389.47 327.41 389.47 321.89 399.82 321.89 409.94 324.88 417.98 326.72 425.57 329.25 427.87 330.17 427.87 341.2 427.87 349.25 426.72 359.14 425.11 367.88 422.58 376.38 419.59 384.2 416.14 392.71 412.46 399.38 408.33 405.81 404.19 412.25 399.36 418 394.99 421.91 388.55 427.2 383.26 431.34 373.61 424.44 366.25 417.08 352.45 403.97"/>
  <polygon class="st3" points="409.26 450.13 418.33 443.3 425.25 438.65 430.25 434.69 435.26 429.27 439.84 424.06 443.81 417.8 448.19 410.5 451.94 402.99 455.48 395.28 458.82 385.48 460.7 376.61 461.95 367.33 462.78 357.95 463.62 350.03 463.62 343.42 473.53 349.37 478.53 353.56 484.82 358.92 490.96 364.29 493.55 367.62 493.55 381.78 490.84 393.26 488.26 401.58 484.82 410.18 480.8 419.36 475.64 427.4 469.9 436.29 463.3 444.32 456.7 450.13 448.67 454.65 442.65 458.09 439.34 461.4 426.41 458.35 409.26 450.13"/>
  <polygon class="st3" points="485.15 463.05 493.55 461.4 499.15 461.4 500.76 461.4 502.37 457.22 507.25 451.26 510.77 458.3 514.67 466.01 518.05 474.33 519.22 479.73 519.22 491.95 517.11 496.88 514.52 501.35 512.17 505.11 508.88 508.63 504.89 512.15 499.96 514.27 493.85 516.62 485.62 516.62 480.69 515.21 488.21 513.33 493.61 510.98 497.37 508.16 501.13 503.46 503.01 497.82 503.48 489.83 502.31 483.25 499.72 476.68 495.26 469.86 490.09 466.1 485.15 463.05"/>
  <polyline class="st3" points="299.2 323.78 296.09 326.42 293.27 328.97 288.63 330.62 280.17 331.45 274.04 329.46 270.22 326.42 270.22 322.5 272.05 318.85 277.02 316.37 282.82 316.37 287.63 317.03 292.6 317.53 296.75 319.35 299.2 323.78"/>
  <polygon class="st0" points="161.11 344.59 160.14 347.68 159.49 351.35 160.3 355.49 162.9 356.8 166.29 356.8 170.06 356.8 173.15 355.66 177.06 352.73 179.66 349.8 181.77 346.38 183.89 342.8 185.19 339.06 186 335.48 186.98 331.09 186.98 326.53 185.35 323.61 182.43 321.82 178.59 321.82 175.75 323.77 173.23 326.37 171.04 329.14 168.92 332.39 167.13 335.16 165.34 338.25 163.06 341.5 161.11 344.59"/>
  <polygon class="st3" points="197.9 389.53 196.45 395.6 194.58 401.53 193.33 407.46 191.15 411.83 185.53 413.7 177.1 410.9 170.86 410.9 166.29 413.7 163.37 419.64 159.49 427.13 157.17 432.53 153.4 438.92 151.11 443.02 147.67 446.95 144.39 450.55 140.95 453.5 138.17 455.96 142.1 459.57 143.9 461.2 132.27 485.45 125.88 494.13 121.95 499.54 124.24 503.31 121.29 507.73 117.36 511.5 109.5 516.62 103.6 520.02 96.55 521.49 90 523.79 91.8 526.57 97.21 529.03 104.91 530.67 113.76 530.67 108.35 527.88 118.83 525.92 111.79 523.79 123.59 520.51 115.89 518.87 128.17 515.43 119.49 514.61 128.83 511.5 122.93 511.17 128.34 505.44 137.02 504.13 140.13 488.4 142.1 479.55 146.85 467.92 148.82 464.81 157.01 469.07 158.65 458.58 161.43 443.02 166.29 431.88 171.92 422.38 177.49 417.13 183.22 415.49 186.82 417.62 189.45 421.72 192.89 423.36 199.28 423.03 203.37 420.25 207.14 412.38 211.61 395.41 202 384.17 197.9 389.53"/>
  <polyline class="st3" points="273.58 409.93 273.58 416.45 273.58 420.94 275.46 426.59 277.82 429.42 281.59 431.34 285.83 431.34 289.14 431.34 291.73 431.34 291.73 436.73 291.14 442.82 289.48 449.87 287.54 456.09 285.88 462.58 284.36 467.83 282.65 475.16 280.91 480.55 279.8 483.31 280.63 486.22 284.5 486.22 284.78 493.27 283.26 499.35 281.74 506.12 280.08 511.24 279.11 515.93 281.88 518.56 282.65 524.37 281.05 529.62 278.84 538.6 275.52 543.72 272.2 550.21 269.71 554.91 268.19 557.68 269.16 561.65 272.2 564.17 276.76 566.66 280.63 566.66 284.23 564.73 286.99 561.65 290.17 555.6 290.86 553.39 285.47 558.92 291.73 547.03 286.71 550.49 291.73 541.51 287.4 543.58 291.73 535.56 287.4 537.36 287.4 518.84 291.73 516.62 291.14 497.55 291.73 490.23 291.73 485.66 297.64 483.31 301.23 480.14 302.13 469.48 302.13 459.11 302.13 449.1 302.13 439.84 300.68 434.18 297.64 426.17 294.85 423.44 290.12 423.63 287.94 420.94 287.03 412.89 285.85 407.07 273.58 409.93"/>
  <polyline class="st3" points="220.2 400.73 225.77 411.4 229.53 420.94 231.72 428.6 225.96 427.35 221.96 431.15 220.2 435.49 216.9 442.17 214.19 448.5 211.61 454.46 207.68 460.79 205.15 466.03 202.8 469.83 200.63 474.35 200.63 477.06 202.98 480.49 205.7 482.12 206.06 487.36 203.79 492.96 200.63 501.64 195.75 508.87 191.42 516.62 194.67 519.71 192.86 523.87 189.25 530.67 182.92 538.69 164.12 552.07 160.15 553.69 162.86 557.67 171.35 560.92 178.4 561.65 186.9 558.93 176.6 556.4 189.43 553.15 182.56 550.8 194.13 547.01 185.09 546.1 196.84 541.22 190.51 540.14 197.92 536.88 193.22 535.62 199.37 522.42 208.59 521.88 208.95 504.35 210.03 490.98 211.61 485.73 221.6 488.81 223.41 470.73 225.22 454.65 227.38 445.43 231.72 435.85 233.35 433.32 236.42 437.66 239.31 439.46 242.03 439.46 245.28 438.2 247.99 435.49 249.8 431.69 249.8 427.17 250.7 423.38 250.7 418.32 250.7 411.31 235.13 408.09 220.2 400.73"/>
  <polygon class="st3" points="299.2 399.71 302.13 407.07 305.33 414.6 307.92 419.53 312.85 425.75 315.71 427.57 321.67 427.57 326.86 426.01 331.53 423.68 336.98 420.94 340.35 426.01 342.17 433.02 345.8 443.4 347.88 451.96 349.95 459.48 350.99 467.52 352.45 473.49 352.45 475.83 360.61 479.46 363.44 490.09 365.26 498.4 368.11 506.18 372.01 515.26 374.6 515.26 377.19 524.86 368.89 522.52 381.86 531.86 370.97 530.67 386.79 538.35 373.82 538.35 391.98 544.06 372.78 544.06 390.16 550.03 374.6 550.03 391.98 555.99 405.73 560.14 417.15 558.85 390.16 527.45 379.53 514.22 387.05 512.93 377.19 501.51 372.78 492.69 367.85 479.93 378.43 479.93 370.71 463.63 365.52 452.74 360.61 438.98 355.4 428.87 350.99 420.94 347.1 413.56 343.21 408.37 336.72 408.63 331.79 412.78 327.12 417.19 321.93 419.01 318.04 413.82 315.45 405.52 313.11 397.73 309.48 392.8 306.7 388.67 299.2 399.71"/>
  <polygon class="st3" points="153.4 326.42 155.76 315.06 157.25 307.32 159.49 298.36 169.19 283.74 181.13 270.6 190.08 259.56 202 246.43 213.66 235.68 214.86 241.95 211.61 247.92 205.42 255.38 199.04 260.75 191.28 268.81 184.13 277.17 177.25 285.23 170.08 291.97 165.61 297.47 166.5 300.45 163.52 308.81 160.15 317.17 153.4 326.42"/>
  <polygon class="st3" points="138.04 321.82 135.7 311.97 132.67 304.41 130.51 299.88 131.38 297.19 124.25 283.9 117.78 275.27 110.65 265.55 103.31 254.98 98.56 247.85 94.46 242.02 91.44 237.27 91.44 231.01 95.97 233.82 100.08 240.3 104.83 246.13 108.93 253.47 114.74 260.59 118.86 267.71 124.04 274.84 129.22 283.26 132.24 289.3 134.4 294.7 136.99 294.05 138.04 303.98 141.1 316.88 138.04 321.82"/>
  <polygon class="st3" points="133.24 419.29 135.57 414.63 138.49 412.1 140.62 412.88 140.62 415.7 140.62 419.29 138.49 424.15 135.57 431.53 133.24 436.58 131.11 440.46 128.97 443.57 126.64 446.87 119.65 452.89 123.72 446.48 126.44 441.24 128.39 436 130.13 429.39 131.88 424.15 133.24 419.29"/>
  <polygon class="st3" points="116.15 417.35 112.26 423.76 108.77 428.42 105.08 432.5 101.39 436.77 94.98 440.85 102.51 431.24 105.56 425.7 108.78 419.68 111.54 414.74 113.3 412.45 116.15 417.35"/>
  <polygon class="st1" points="299.2 323.78 314.66 320.6 341.04 314.69 374.7 307.41 404.94 300.82 439.73 293.99 468.84 288.54 488.17 286.26 504.77 284.44 519.78 284.44 527.51 286.72 532.51 289.22 530.92 295.58 528.19 301.95 522.05 311.96 513.41 321.89 506.13 328.33 501.58 330.83 496.35 332.65 487.26 334.47 472.48 334.47 457.24 334.47 370.6 331.06 348.77 329.69 323.53 327.19 343.77 331.06 364.69 333.33 384.48 335.61 402.44 336.97 417.45 338.56 438.6 342.43 448.83 344.47 449.74 347.66 446.78 350.39 441.32 352.43 432.46 356.07 423.36 359.26 413.13 359.26 399.71 359.26 386.29 357.21 371.97 354.03 346.5 345.61 333.4 341.29 320.35 335.38 299.2 323.78"/>
  <polygon class="st1" points="262.78 291.62 296.08 267.06 316.01 254.23 334.57 243.85 358.58 230.75 380.97 217.92 401.71 206.73 421.64 197.18 434.19 192.54 438.01 196.09 441.56 205.64 441.56 213.28 441.56 222.84 439.92 229.39 436.1 237.3 425.46 246.86 410.72 255.59 396.25 261.87 381.79 266.24 284.52 293.88 279.98 295.17 262.78 291.62"/>
  <polygon class="st1" points="287.63 296.2 307.27 291.97 352.45 279.06 382.06 270.6 399.53 264.87 404.99 264.87 404.99 270.88 403.08 277.15 400.62 281.05 395.43 285.62 386.7 288.07 373.32 289.71 349.03 291.97 326.92 294.08 311.37 296.2 296.23 298.34 287.63 296.2"/>
</svg>